<svg xmlns="http://www.w3.org/2000/svg" xmlns:xlink="http://www.w3.org/1999/xlink" width="500" zoomAndPan="magnify" viewBox="0 0 375 374.999991" height="500" preserveAspectRatio="xMidYMid meet" version="1.0"><defs><g/><clipPath id="f6bcd21eee"><path d="M 74.949219 75.402344 L 299.199219 75.402344 L 299.199219 299.652344 L 74.949219 299.652344 Z M 74.949219 75.402344 " clip-rule="nonzero"/></clipPath></defs><g clip-path="url(#f6bcd21eee)"><path fill="#1f535b" d="M 92.203125 75.402344 L 281.945312 75.402344 C 286.519531 75.402344 290.910156 77.21875 294.144531 80.453125 C 297.378906 83.691406 299.199219 88.078125 299.199219 92.65625 L 299.199219 282.398438 C 299.199219 286.972656 297.378906 291.363281 294.144531 294.597656 C 290.910156 297.832031 286.519531 299.652344 281.945312 299.652344 L 92.203125 299.652344 C 87.625 299.652344 83.238281 297.832031 80 294.597656 C 76.765625 291.363281 74.949219 286.972656 74.949219 282.398438 L 74.949219 92.65625 C 74.949219 88.078125 76.765625 83.691406 80 80.453125 C 83.238281 77.21875 87.625 75.402344 92.203125 75.402344 " fill-opacity="1" fill-rule="nonzero"/></g><g fill="#e6e8e6" fill-opacity="1"><g transform="translate(156.980462, 239.999984)"><g><path d="M 53.421875 -78.953125 C 53.421875 -67.523438 50.320312 -60.503906 44.125 -57.890625 C 51.6875 -55.359375 55.46875 -47.007812 55.46875 -32.84375 L 55.46875 -30.125 C 55.394531 -19.457031 53.535156 -11.769531 49.890625 -7.0625 C 46.242188 -2.351562 40.296875 0 32.046875 0 L 8.578125 0 L 8.578125 -106.234375 L 31.5625 -106.234375 C 39.5 -106.234375 45.113281 -104.390625 48.40625 -100.703125 C 51.707031 -97.023438 53.378906 -90.863281 53.421875 -82.21875 Z M 24.75 -12.5625 L 30.484375 -12.5625 C 33.703125 -12.5625 35.953125 -13.664062 37.234375 -15.875 C 38.523438 -18.09375 39.171875 -22.054688 39.171875 -27.765625 L 39.171875 -36.34375 C 39.171875 -41.726562 38.644531 -45.535156 37.59375 -47.765625 C 36.550781 -50.003906 34.539062 -51.125 31.5625 -51.125 L 24.75 -51.125 Z M 24.75 -63.265625 L 30.71875 -63.265625 C 33.5 -63.265625 35.320312 -64.148438 36.1875 -65.921875 C 37.050781 -67.691406 37.484375 -71.332031 37.484375 -76.84375 L 37.484375 -83.234375 C 37.441406 -87.347656 36.878906 -90.097656 35.796875 -91.484375 C 34.710938 -92.867188 32.84375 -93.5625 30.1875 -93.5625 L 24.75 -93.5625 Z M 24.75 -63.265625 "/></g></g></g><g fill="#ffcb3d" fill-opacity="1"><g transform="translate(74.691657, 253.2853)"><g><path d="M 61.625 20.40625 L 22.859375 20.40625 L 22.859375 -150.984375 L 61.625 -150.984375 L 61.625 -138.28125 L 37.984375 -138.28125 L 37.984375 7.71875 L 61.625 7.71875 Z M 61.625 20.40625 "/></g></g></g><g fill="#ffcb3d" fill-opacity="1"><g transform="translate(230.844722, 253.2853)"><g><path d="M 45.703125 20.40625 L 6.9375 20.40625 L 6.9375 7.71875 L 30.5625 7.71875 L 30.5625 -138.28125 L 6.9375 -138.28125 L 6.9375 -150.984375 L 45.703125 -150.984375 Z M 45.703125 20.40625 "/></g></g></g></svg>