<svg xmlns="http://www.w3.org/2000/svg" xmlns:xlink="http://www.w3.org/1999/xlink" width="300" zoomAndPan="magnify" viewBox="0 0 375 374.999991" height="300" preserveAspectRatio="xMidYMid meet" version="1.0"><defs><g/></defs><g fill="#ffcb3d" fill-opacity="1"><g transform="translate(16.845534, 256.217671)"><g><path d="M 66.546875 22.046875 L 24.6875 22.046875 L 24.6875 -163.0625 L 66.546875 -163.0625 L 66.546875 -149.34375 L 41.03125 -149.34375 L 41.03125 8.328125 L 66.546875 8.328125 Z M 66.546875 22.046875 "/></g></g></g><g fill="#ffcb3d" fill-opacity="1"><g transform="translate(121.329906, 256.217671)"><g/></g></g><g fill="#ffcb3d" fill-opacity="1"><g transform="translate(204.731215, 256.217671)"><g/></g></g><g fill="#ffcb3d" fill-opacity="1"><g transform="translate(288.12286, 256.217671)"><g><path d="M 49.359375 22.046875 L 7.484375 22.046875 L 7.484375 8.328125 L 33.015625 8.328125 L 33.015625 -149.34375 L 7.484375 -149.34375 L 7.484375 -163.0625 L 49.359375 -163.0625 Z M 49.359375 22.046875 "/></g></g></g><g fill="#1f535b" fill-opacity="1"><g transform="translate(71.022919, 241.124984)"><g><path d="M 55.09375 -81.4375 C 55.09375 -69.644531 51.898438 -62.398438 45.515625 -59.703125 C 53.316406 -57.085938 57.21875 -48.476562 57.21875 -33.875 L 57.21875 -31.0625 C 57.132812 -20.0625 55.210938 -12.132812 51.453125 -7.28125 C 47.703125 -2.425781 41.570312 0 33.0625 0 L 8.84375 0 L 8.84375 -109.578125 L 32.5625 -109.578125 C 40.738281 -109.578125 46.523438 -107.675781 49.921875 -103.875 C 53.328125 -100.070312 55.050781 -93.710938 55.09375 -84.796875 Z M 25.53125 -12.953125 L 31.4375 -12.953125 C 34.757812 -12.953125 37.082031 -14.09375 38.40625 -16.375 C 39.738281 -18.65625 40.40625 -22.742188 40.40625 -28.640625 L 40.40625 -37.484375 C 40.40625 -43.046875 39.863281 -46.976562 38.78125 -49.28125 C 37.707031 -51.582031 35.632812 -52.734375 32.5625 -52.734375 L 25.53125 -52.734375 Z M 25.53125 -65.25 L 31.6875 -65.25 C 34.550781 -65.25 36.425781 -66.160156 37.3125 -67.984375 C 38.207031 -69.804688 38.65625 -73.5625 38.65625 -79.25 L 38.65625 -85.84375 C 38.613281 -90.082031 38.03125 -92.914062 36.90625 -94.34375 C 35.789062 -95.78125 33.863281 -96.5 31.125 -96.5 L 25.53125 -96.5 Z M 25.53125 -65.25 "/></g></g></g><g fill="#1f535b" fill-opacity="1"><g transform="translate(133.024051, 241.124984)"><g><path d="M 8.21875 0 L 8.21875 -109.578125 L 24.90625 -109.578125 L 24.90625 -14.1875 L 46 -14.1875 L 46 0 Z M 8.21875 0 "/></g></g></g><g fill="#1f535b" fill-opacity="1"><g transform="translate(180.396409, 241.124984)"><g><path d="M 8.84375 0 L 8.84375 -109.578125 L 25.53125 -109.578125 L 25.53125 0 Z M 8.84375 0 "/></g></g></g><g fill="#1f535b" fill-opacity="1"><g transform="translate(214.758482, 241.124984)"><g><path d="M 13.828125 0 L 13.828125 -95.125 L 1 -95.125 L 1 -109.578125 L 42.765625 -109.578125 L 42.765625 -95.125 L 30.4375 -95.125 L 30.4375 0 Z M 13.828125 0 "/></g></g></g><g fill="#1f535b" fill-opacity="1"><g transform="translate(258.520331, 241.124984)"><g><path d="M 6.09375 0 L 6.09375 -14.8125 L 28.828125 -95.1875 L 8.15625 -95.1875 L 8.15625 -109.578125 L 46.3125 -109.578125 L 46.3125 -96.0625 L 23.59375 -14.375 L 45.828125 -14.375 L 45.828125 0 Z M 6.09375 0 "/></g></g></g></svg>